<svg width="48" height="48" viewBox="0 0 48 48" fill="none" xmlns="http://www.w3.org/2000/svg">
    <path d="M19.2329 29.5728L35.2391 13.5666C35.6168 13.1889 36.0575 13 36.5612 13C37.0648 13 37.5055 13.1889 37.8832 13.5666C38.2609 13.9443 38.4498 14.3932 38.4498 14.9132C38.4498 15.4332 38.2609 15.8814 37.8832 16.2579L20.5549 33.6334C20.1772 34.0111 19.7365 34.2 19.2329 34.2C18.7292 34.2 18.2886 34.0111 17.9108 33.6334L9.78967 25.5122C9.41195 25.1345 9.23064 24.6863 9.24574 24.1675C9.26085 23.6488 9.4579 23.1999 9.83689 22.8209C10.2159 22.4419 10.6647 22.2531 11.1835 22.2543C11.7022 22.2556 12.1505 22.4445 12.5282 22.8209L19.2329 29.5728Z" fill="#031228"/>
</svg>
